<svg width="800" height="600" xmlns="http://www.w3.org/2000/svg">

 <g>
  <title>Layer 1</title>
  <g stroke="null" stroke-width="3">
   <path stroke="null" d="m241.5041,124.185l-13.15764,14.28366c20.19675,16.13854 36.92446,33.11545 50.30663,50.51154l-79.65309,0l0,18.86323l92.70969,0c18.3219,29.65719 27.41548,60.46714 27.41548,91.17229c0,30.70515 -9.09359,61.51509 -27.41548,91.17229l-92.70969,0l0,18.86323l79.65309,0c-13.38217,17.39609 -30.10988,34.373 -50.30663,50.51154l13.15764,14.25222c25.36101,-20.33037 45.86087,-42.02309 61.45469,-64.76376l22.1165,0c4.04159,-6.18295 7.74639,-12.47069 11.11439,-18.86323l-21.55517,0c16.39091,-29.5524 24.69863,-60.25754 24.69863,-91.17229s-8.30772,-61.61989 -24.69863,-91.17229l21.55517,0c-3.368,-6.39254 -7.07279,-12.68028 -11.11439,-18.86323l-22.1165,0c-15.58259,-22.74067 -36.09369,-44.53819 -61.45469,-64.7952zm70.43601,16.58916c44.90661,48.10124 67.80898,103.119 67.80898,158.24155c0,55.12255 -22.90237,110.14031 -67.80898,158.24155l84.64895,0c38.28288,0 91.94628,-35.63055 133.93395,-74.82415c20.99384,-19.49201 39.40555,-39.71758 52.3162,-55.85612c6.51146,-7.96448 11.67572,-15.09059 15.04371,-20.33037c1.57173,-2.61989 2.80666,-4.9254 3.59253,-6.39254c0.11227,-0.41918 0.22453,-0.52398 0.22453,-0.83837c0,-0.31439 -0.11227,-0.52398 -0.22453,-0.94316c-0.6736,-1.46714 -1.90853,-3.66785 -3.59253,-6.28774c-3.368,-5.34458 -8.41999,-12.3659 -14.81918,-20.43517c-12.68612,-16.13854 -30.87329,-36.25932 -51.75486,-55.75133c-41.76314,-39.1936 -95.31427,-74.82415 -134.71982,-74.82415l-84.64895,0z" fill="currentColor"/>
  </g>
 </g>
</svg>