<?xml version="1.0" encoding="UTF-8"?>
<svg xmlns="http://www.w3.org/2000/svg" xmlns:xlink="http://www.w3.org/1999/xlink" viewBox="0 0 24 24" width="24px" height="24px">
<g id="surface1541988">
<path style=" stroke:none;fill-rule:nonzero;fill:rgb(20.392157%,59.607846%,85.882354%);fill-opacity:1;" d="M 12 0.960938 C 5.902344 0.960938 0.960938 5.902344 0.960938 12 C 0.960938 18.097656 5.902344 23.039062 12 23.039062 C 18.097656 23.039062 23.039062 18.097656 23.039062 12 C 23.039062 5.902344 18.097656 0.960938 12 0.960938 Z M 12 5.28125 C 12.796875 5.28125 13.441406 5.925781 13.441406 6.71875 C 13.441406 7.515625 12.796875 8.160156 12 8.160156 C 11.203125 8.160156 10.558594 7.515625 10.558594 6.71875 C 10.558594 5.925781 11.203125 5.28125 12 5.28125 Z M 13.921875 18.238281 L 10.078125 18.238281 L 10.078125 17.28125 L 11.039062 17.28125 L 11.039062 11.039062 L 10.078125 11.039062 L 10.078125 10.078125 L 12.960938 10.078125 L 12.960938 17.28125 L 13.921875 17.28125 Z M 13.921875 18.238281 "/>
</g>
</svg>
